<?xml version="1.0" ?><!DOCTYPE svg  PUBLIC '-//W3C//DTD SVG 1.1//EN'  'http://www.w3.org/Graphics/SVG/1.1/DTD/svg11.dtd'><svg enable-background="new 0 0 128 128" id="Слой_1" version="1.1" viewBox="0 0 128 128" xml:space="preserve" xmlns="http://www.w3.org/2000/svg" xmlns:xlink="http://www.w3.org/1999/xlink"><g><path d="M69.902,53.398c-0.183,0.392-0.294,0.733-0.375,1.051c-1.515-0.796-3.254-1.069-4.935-0.76   c-3.843,0.713-5.851,4.294-4.996,8.913l0.133,0.715c0.02,0.107-0.03,0.309-0.23,0.55c-0.409,0.491-1.354,1.017-2.779,1.017   c-0.471,0-0.966-0.058-1.472-0.172c-0.413-0.092-0.837,0.084-1.064,0.438c-0.227,0.356-0.205,0.816,0.053,1.149   c1.769,2.282,5.184,3.7,8.914,3.7c0,0,0,0,0.001,0c2.089,0,4.14-0.46,5.931-1.33c4.007-1.948,5.84-5.032,5.03-8.462   c-0.143-0.606-0.341-1.169-0.586-1.698c0.237-0.066,0.481-0.146,0.748-0.263c4.613-2.035,12.11-7.931,19.564-15.386   c6.873-6.873,18.963-20.781,15.522-24.222c-0.424-0.425-1.006-0.64-1.729-0.64c-4.35,0-14.708,8.378-22.493,16.162   C77.899,41.401,72.061,48.772,69.902,53.398z M68.208,66.871C66.688,67.609,64.94,68,63.151,68c0,0,0,0-0.001,0   c-1.922,0-3.768-0.448-5.217-1.218c1.294-0.223,2.408-0.8,3.104-1.637c0.562-0.676,0.796-1.454,0.659-2.193l-0.133-0.714   c-0.492-2.655,0.102-5.973,3.393-6.582c1.409-0.263,2.871,0.035,4.099,0.83c0.008,0.006,0.176,0.109,0.185,0.114   c2.069,1.387,2.65,2.901,2.926,4.066C72.954,64.008,70.024,65.988,68.208,66.871z M73.466,56.417   c-0.456,0.201-0.698,0.231-0.802,0.231c-0.104,0-0.132,0-0.422-0.326c-0.088-0.099-0.177-0.198-0.272-0.294l-0.187-0.181   c-0.435-0.414-0.565-0.539-0.069-1.604c0.585-1.254,1.469-2.732,2.585-4.36l3.812,3.812C76.346,54.909,74.764,55.844,73.466,56.417   z M107.631,20c0.215,0,0.304,0.043,0.315,0.054c0.877,0.878-3.345,9.215-15.522,21.394c-4.38,4.379-8.852,8.267-12.662,11.073   l-4.29-4.291c2.792-3.793,6.664-8.236,11.081-12.653C96.303,25.826,104.927,20,107.631,20z" fill="#323638"/><path d="M108,32.943v44.663H20V26.821c0-0.744,0.586-1.35,1.306-1.35h67.232c0.74-0.656,1.515-1.327,2.314-2H21.306   c-1.823,0-3.306,1.502-3.306,3.35v51.786v0.082v6.413c0,1.843,1.483,3.343,3.306,3.343h31.71   c-0.327,2.72-1.363,11.339-1.694,14.085H47c-0.552,0-1,0.448-1,1s0.448,1,1,1h34c0.552,0,1-0.448,1-1s-0.448-1-1-1h-4.324   c-0.329-2.745-1.341-11.208-1.685-14.085h31.702c1.823,0,3.306-1.5,3.306-3.343v-6.413v-0.082V30.115   C109.413,31.002,108.75,31.943,108,32.943z M53.336,102.529c0.368-3.056,1.386-11.526,1.694-14.085h17.947   c0.364,3.047,1.328,11.106,1.685,14.085H53.336z M108,85.101c0,0.74-0.586,1.343-1.306,1.343H21.306   c-0.72,0-1.306-0.603-1.306-1.343v-5.495h88V85.101z" fill="#323638"/></g></svg>