<?xml version="1.0" ?><!DOCTYPE svg  PUBLIC '-//W3C//DTD SVG 1.1//EN'  'http://www.w3.org/Graphics/SVG/1.1/DTD/svg11.dtd'><svg enable-background="new 0 0 128 128" id="Слой_1" version="1.1" viewBox="0 0 128 128" xml:space="preserve" xmlns="http://www.w3.org/2000/svg" xmlns:xlink="http://www.w3.org/1999/xlink"><g><path d="M95,49c0-17.093-13.907-31-31-31S33,31.907,33,49c0,10.706,7.726,21.338,13.934,29.882l0.929,1.281V90   c0,3.309,2.691,6,6,6h20c3.309,0,6-2.691,6-6v-9.622l1.047-1.432C86.856,70.83,95,59.716,95,49z M35,49c0-15.991,13.009-29,29-29   s29,13.009,29,29c0,10.062-7.92,20.871-13.703,28.763L78.393,79H49.49l-0.938-1.294C42.514,69.397,35,59.056,35,49z M77.863,90   c0,2.206-1.794,4-4,4h-20c-2.206,0-4-1.794-4-4v-9h28V90z" fill="#313638"/><path d="M72.863,104h-18c-0.552,0-1,0.448-1,1s0.448,1,1,1h18c0.552,0,1-0.448,1-1S73.416,104,72.863,104z" fill="#313638"/><path d="M66.363,108h-5c-0.552,0-1,0.448-1,1s0.448,1,1,1h5c0.552,0,1-0.448,1-1S66.916,108,66.363,108z" fill="#313638"/><path d="M73.863,99h-20c-0.552,0-1,0.448-1,1s0.448,1,1,1h20c0.552,0,1-0.448,1-1S74.416,99,73.863,99z" fill="#313638"/><path d="M63.08,68.288c0.021,0.027,0.053,0.037,0.077,0.061c0.031,0.032,0.049,0.073,0.085,0.101   c0.042,0.033,0.09,0.048,0.135,0.074c0.035,0.02,0.067,0.041,0.104,0.057c0.124,0.052,0.252,0.086,0.382,0.086c0,0,0,0,0,0s0,0,0,0   c0.131,0,0.259-0.034,0.382-0.086c0.037-0.015,0.068-0.037,0.104-0.057c0.045-0.025,0.093-0.041,0.135-0.074   c0.036-0.029,0.054-0.069,0.085-0.101c0.023-0.024,0.055-0.034,0.077-0.061l12-15.129c0.343-0.433,0.271-1.062-0.162-1.405   c-0.433-0.341-1.061-0.27-1.405,0.162L63.863,66.057L52.647,51.916c-0.344-0.433-0.972-0.504-1.405-0.162   c-0.433,0.343-0.505,0.973-0.162,1.405L63.08,68.288z" fill="#313638"/></g></svg>