<svg xmlns="http://www.w3.org/2000/svg" width="25" height="25" viewBox="0 0 25 25">
  <g fill="#938CAA" fill-rule="evenodd" transform="translate(-1 -1)">
    <path fill-opacity=".24" d="M20.8951,21.3545 C20.8591,21.1155 20.6561,20.9365 20.4151,20.9295 C20.1661,20.9305 19.9611,21.0915 19.9111,21.3285 C19.7631,22.0455 19.3511,23.0005 17.5001,23.0005 C16.6181,23.0005 16.2041,22.7925 15.7241,22.5525 C15.2061,22.2935 14.6181,22.0005 13.5001,22.0005 C12.3821,22.0005 11.7941,22.2935 11.2761,22.5525 C10.7961,22.7925 10.3821,23.0005 9.5001,23.0005 C7.6491,23.0005 7.2371,22.0455 7.0891,21.3285 C7.0401,21.0905 6.8691,20.9265 6.5851,20.9295 C6.3441,20.9365 6.1411,21.1155 6.1051,21.3545 C6.0341,21.8205 6.0001,22.1945 6.0001,22.5005 C6.0001,24.7905 7.2101,26.0005 9.5001,26.0005 C10.6181,26.0005 11.2061,25.7065 11.7241,25.4475 C12.2041,25.2075 12.6181,25.0005 13.5001,25.0005 C14.3821,25.0005 14.7961,25.2075 15.2761,25.4475 C15.7941,25.7065 16.3821,26.0005 17.5001,26.0005 C19.7901,26.0005 21.0001,24.7905 21.0001,22.5005 C21.0001,22.1945 20.9661,21.8205 20.8951,21.3545"/>
    <path d="M17.5002,25 C16.6182,25 16.2042,24.793 15.7242,24.553 C15.2062,24.294 14.6182,24 13.5002,24 C12.3822,24 11.7942,24.294 11.2762,24.553 C10.7962,24.793 10.3822,25 9.5002,25 C7.7712,25 7.0002,24.229 7.0002,22.5 C7.0002,19.624 9.9522,12 13.5002,12 C17.0482,12 20.0002,19.624 20.0002,22.5 C20.0002,24.229 19.2292,25 17.5002,25 M13.5002,11 C8.9462,11 6.0002,19.544 6.0002,22.5 C6.0002,24.79 7.2102,26 9.5002,26 C10.6182,26 11.2062,25.706 11.7242,25.447 C12.2042,25.207 12.6182,25 13.5002,25 C14.3822,25 14.7962,25.207 15.2762,25.447 C15.7942,25.706 16.3822,26 17.5002,26 C19.7902,26 21.0002,24.79 21.0002,22.5 C21.0002,19.544 18.0542,11 13.5002,11 M24.8282,12.975 C24.3822,14.32 23.1632,15.225 22.1602,14.949 C21.6822,14.818 21.4092,14.469 21.2652,14.199 C20.9502,13.612 20.9162,12.799 21.1722,12.025 C21.5642,10.843 22.5552,10.001 23.4692,10.001 C23.5942,10.001 23.7192,10.018 23.8402,10.051 C24.3182,10.182 24.5912,10.531 24.7352,10.801 C25.0502,11.388 25.0842,12.2 24.8282,12.975 M25.6172,10.329 C25.2822,9.703 24.7452,9.262 24.1042,9.086 C22.5832,8.669 20.8412,9.845 20.2232,11.711 C19.8762,12.756 19.9352,13.834 20.3832,14.671 C20.7182,15.297 21.2552,15.738 21.8962,15.914 C22.1032,15.971 22.3142,15.998 22.5272,15.998 C23.8712,15.998 25.2432,14.9 25.7772,13.289 C26.1242,12.244 26.0652,11.166 25.6172,10.329 M5.7352,14.199 C5.5912,14.469 5.3182,14.818 4.8402,14.949 C3.8392,15.22 2.6182,14.319 2.1722,12.975 C1.9162,12.2 1.9502,11.388 2.2652,10.801 C2.4092,10.531 2.6822,10.182 3.1602,10.051 C4.1582,9.775 5.3812,10.679 5.8282,12.025 C6.0842,12.799 6.0502,13.612 5.7352,14.199 M6.7772,11.711 C6.1582,9.845 4.4142,8.668 2.8962,9.086 C2.2552,9.262 1.7182,9.703 1.3832,10.329 C0.9352,11.166 0.8762,12.244 1.2232,13.289 C1.7572,14.9 3.1292,15.998 4.4732,15.998 C4.6862,15.998 4.8972,15.971 5.1042,15.914 C5.7452,15.738 6.2822,15.297 6.6172,14.671 C7.0652,13.834 7.1242,12.756 6.7772,11.711 M15.0482,5.113 C15.2062,3.992 15.7462,2.992 16.4912,2.438 C16.8812,2.148 17.2992,2 17.7162,2 C17.8052,2 17.8942,2.007 17.9822,2.021 C19.3392,2.23 20.2222,3.965 19.9522,5.887 C19.7942,7.008 19.2542,8.008 18.5092,8.562 C18.0362,8.913 17.5202,9.058 17.0182,8.979 C15.6612,8.77 14.7782,7.035 15.0482,5.113 M16.8642,9.968 C17.0062,9.989 17.1482,10.001 17.2902,10.001 C17.9192,10.001 18.5402,9.784 19.1052,9.364 C20.0752,8.645 20.7452,7.427 20.9422,6.025 C21.2892,3.565 20.0292,1.325 18.1362,1.032 C17.3622,0.917 16.5872,1.122 15.8952,1.636 C14.9252,2.355 14.2552,3.573 14.0582,4.975 C13.7112,7.435 14.9712,9.675 16.8642,9.968 M9.0182,2.021 C9.1062,2.007 9.1952,2 9.2842,2 C9.7012,2 10.1192,2.149 10.5092,2.438 C11.2542,2.992 11.7942,3.992 11.9522,5.113 C12.2222,7.035 11.3392,8.77 9.9822,8.979 C9.4812,9.058 8.9642,8.912 8.4912,8.562 C7.7462,8.008 7.2062,7.008 7.0482,5.887 C6.7782,3.965 7.6612,2.23 9.0182,2.021 M7.8952,9.364 C8.4602,9.784 9.0812,10.001 9.7102,10.001 C9.8522,10.001 9.9942,9.989 10.1362,9.968 C12.0292,9.675 13.2892,7.435 12.9422,4.975 C12.7452,3.573 12.0752,2.355 11.1052,1.636 C10.4132,1.121 9.6392,0.913 8.8642,1.032 C6.9712,1.325 5.7112,3.565 6.0582,6.025 C6.2552,7.427 6.9252,8.645 7.8952,9.364"/>
  </g>
</svg>
