<svg xmlns="http://www.w3.org/2000/svg" width="15" height="25" viewBox="0 0 15 25">
  <g fill="#938CAA" fill-rule="evenodd">
    <path fill-opacity=".24" d="M14.9342,19.252 L13.7912,17.252 C13.7022,17.096 13.5362,17 13.3572,17 L1.6432,17 C1.4642,17 1.2982,17.096 1.2092,17.252 L0.0662,19.252 C-0.0228,19.406 -0.0218,19.597 0.0672,19.751 C0.1572,19.905 0.3222,20 0.5002,20 L14.5002,20 C14.6782,20 14.8432,19.905 14.9332,19.751 C15.0222,19.597 15.0222,19.406 14.9342,19.252"/>
    <path d="M1.362,19 L4.934,12.748 C5.023,12.594 5.022,12.403 4.933,12.249 C4.843,12.095 4.678,12 4.5,12 L2.434,12 L5.916,6.777 C6.018,6.624 6.028,6.427 5.941,6.264 C5.854,6.102 5.685,6 5.5,6 L4.434,6 L7.5,1.401 L10.566,6 L9.5,6 C9.316,6 9.146,6.102 9.059,6.264 C8.972,6.427 8.982,6.624 9.084,6.777 L12.566,12 L10.5,12 C10.322,12 10.157,12.095 10.068,12.249 C9.978,12.403 9.978,12.594 10.066,12.748 L13.638,19 L1.362,19 Z M14.934,19.252 L11.362,13 L13.5,13 C13.685,13 13.854,12.898 13.941,12.736 C14.028,12.573 14.018,12.376 13.916,12.223 L10.434,7 L11.5,7 C11.685,7 11.854,6.898 11.941,6.736 C12.028,6.573 12.018,6.376 11.916,6.223 L7.916,0.223 C7.731,-0.055 7.27,-0.055 7.084,0.223 L3.084,6.223 C2.982,6.376 2.972,6.573 3.059,6.736 C3.146,6.898 3.316,7 3.5,7 L4.566,7 L1.084,12.223 C0.982,12.376 0.972,12.573 1.059,12.736 C1.146,12.898 1.316,13 1.5,13 L3.638,13 L0.066,19.252 C-0.022,19.406 -0.022,19.597 0.068,19.751 C0.157,19.905 0.322,20 0.5,20 L7,20 L7,24.5 C7,24.776 7.224,25 7.5,25 C7.777,25 8,24.776 8,24.5 L8,20 L14.5,20 C14.678,20 14.843,19.905 14.933,19.751 C15.022,19.597 15.023,19.406 14.934,19.252 L14.934,19.252 Z"/>
  </g>
</svg>
